<mxfile host="app.diagrams.net" modified="2023-06-06T04:52:44.740Z" agent="Mozilla/5.0 (Windows NT 10.0; Win64; x64) AppleWebKit/537.36 (KHTML, like Gecko) Chrome/116.0.0.0 Safari/537.36" version="21.3.2" etag="siwfIrFQ6KbV861aO8H3" type="github">
  <diagram name="第 1 页" id="BL4C2kcCCa0EoJB0lPu7">
    <mxGraphModel>
      <root>
        <mxCell id="0" />
        <mxCell id="1" parent="0" />
      </root>
    </mxGraphModel>
  </diagram>
</mxfile>
